<svg xmlns="http://www.w3.org/2000/svg" width="28" height="21"><defs><linearGradient id="a" x1="101.017%" x2="0%" y1="79.011%" y2="20.989%"><stop offset="0%" stop-color="#DF56EB"/><stop offset="44.431%" stop-color="#FF59C7"/><stop offset="100%" stop-color="#FFBB5F"/></linearGradient></defs><path fill="url(#a)" d="M13.75 6.472c3.997 0 7.25 3.252 7.25 7.25 0 3.999-3.253 7.251-7.25 7.251-3.999 0-7.251-3.252-7.251-7.25 0-3.999 3.252-7.251 7.25-7.251zM6.508 8.63a8.805 8.805 0 000 10.185C3.05 16.93.418 14.468.245 14.302a.808.808 0 010-1.159c.173-.166 2.806-2.628 6.264-4.513zm14.48 0c3.459 1.885 6.092 4.347 6.264 4.513a.808.808 0 010 1.159c-.172.166-2.805 2.628-6.263 4.513a8.806 8.806 0 000-10.185zm-7.24 1.064a4.033 4.033 0 00-4.028 4.029 4.033 4.033 0 004.028 4.028 4.033 4.033 0 004.028-4.028 4.033 4.033 0 00-4.028-4.029zm0 1.612a2.42 2.42 0 012.417 2.417 2.42 2.42 0 01-2.417 2.416 2.42 2.42 0 01-2.417-2.416 2.42 2.42 0 012.417-2.417zm0 1.61a.806.806 0 100 1.612.806.806 0 000-1.611zM4.341 3.293l.101.042 3.223 1.612a.806.806 0 01-.62 1.483l-.101-.042L3.72 4.776a.806.806 0 01.62-1.484zm19.797.403a.806.806 0 01-.266 1.025l-.095.056-3.222 1.61a.806.806 0 01-.816-1.385l.095-.055 3.222-1.612a.806.806 0 011.082.36zM13.749.027c.411 0 .75.307.8.704l.006.101v3.223a.805.805 0 01-1.605.101l-.006-.101V.832c0-.445.36-.805.805-.805z"/></svg>